<svg width="14" height="14" viewBox="0 0 14 14" fill="none" xmlns="http://www.w3.org/2000/svg">
<path d="M7 0C5.61553 0 4.26215 0.410543 3.11101 1.17971C1.95987 1.94888 1.06266 3.04213 0.532846 4.32122C0.003033 5.6003 -0.13559 7.00776 0.134506 8.36563C0.404603 9.7235 1.07129 10.9708 2.05026 11.9497C3.02922 12.9287 4.2765 13.5954 5.63437 13.8655C6.99224 14.1356 8.3997 13.997 9.67879 13.4672C10.9579 12.9373 12.0511 12.0401 12.8203 10.889C13.5895 9.73785 14 8.38447 14 7C13.998 5.1441 13.2599 3.36479 11.9475 2.05247C10.6352 0.74015 8.8559 0.0020073 7 0ZM7.14583 2.91667C7.31889 2.91667 7.48807 2.96798 7.63196 3.06413C7.77585 3.16028 7.888 3.29693 7.95423 3.45682C8.02046 3.6167 8.03778 3.79264 8.00402 3.96237C7.97026 4.1321 7.88692 4.28801 7.76455 4.41038C7.64218 4.53276 7.48627 4.61609 7.31654 4.64985C7.14681 4.68362 6.97087 4.66629 6.81099 4.60006C6.6511 4.53383 6.51445 4.42168 6.4183 4.27779C6.32215 4.1339 6.27084 3.96472 6.27084 3.79167C6.27084 3.5596 6.36302 3.33704 6.52712 3.17295C6.69121 3.00885 6.91377 2.91667 7.14583 2.91667ZM8.45833 10.7917H6.125C5.97029 10.7917 5.82192 10.7302 5.71252 10.6208C5.60313 10.5114 5.54167 10.363 5.54167 10.2083C5.54167 10.0536 5.60313 9.90525 5.71252 9.79585C5.82192 9.68646 5.97029 9.625 6.125 9.625H6.5625C6.60118 9.625 6.63827 9.60963 6.66562 9.58228C6.69297 9.55494 6.70833 9.51784 6.70833 9.47917V6.85417C6.70833 6.81549 6.69297 6.7784 6.66562 6.75105C6.63827 6.7237 6.60118 6.70833 6.5625 6.70833H6.125C5.97029 6.70833 5.82192 6.64687 5.71252 6.53748C5.60313 6.42808 5.54167 6.27971 5.54167 6.125C5.54167 5.97029 5.60313 5.82192 5.71252 5.71252C5.82192 5.60312 5.97029 5.54167 6.125 5.54167H6.70833C7.01775 5.54167 7.3145 5.66458 7.53329 5.88337C7.75208 6.10217 7.875 6.39891 7.875 6.70833V9.47917C7.875 9.51784 7.89037 9.55494 7.91772 9.58228C7.94506 9.60963 7.98216 9.625 8.02083 9.625H8.45833C8.61304 9.625 8.76142 9.68646 8.87081 9.79585C8.98021 9.90525 9.04167 10.0536 9.04167 10.2083C9.04167 10.363 8.98021 10.5114 8.87081 10.6208C8.76142 10.7302 8.61304 10.7917 8.45833 10.7917Z" fill="#2C55FB"/>
</svg>
