<svg width="24" height="24" viewBox="0 0 24 24" fill="none" xmlns="http://www.w3.org/2000/svg">
<path d="M8.65738 1.71633V0H15.3426V1.71633H8.65738ZM9.77159 16.3909L8.29526 13.3302C8.22098 13.1776 8.11421 13.0632 7.97493 12.9869C7.83565 12.9106 7.69174 12.8725 7.54318 12.8725H2C2.20427 10.2026 3.26277 7.95709 5.17549 6.13588C7.08821 4.31466 9.36305 3.40405 12 3.40405C13.2442 3.40405 14.4095 3.61383 15.4958 4.03337C16.5822 4.45292 17.5525 5.0441 18.4067 5.80691L19.8273 4.34803L21.0251 5.57807L19.6045 7.03695C20.1987 7.72348 20.7233 8.5435 21.1783 9.49702C21.6332 10.4505 21.9072 11.5757 22 12.8725H16.9861L14.9805 8.75328C14.8319 8.42908 14.5812 8.26698 14.2284 8.26698C13.8756 8.26698 13.6249 8.42908 13.4763 8.75328L9.77159 16.3909ZM12 24C9.36305 24 7.09285 23.0942 5.18941 21.2825C3.28598 19.4708 2.22284 17.2396 2 14.5888H7.01393L9.0195 18.708C9.16806 19.0322 9.41876 19.1943 9.77159 19.1943C10.1244 19.1943 10.3751 19.0322 10.5237 18.708L14.2284 11.0703L15.7047 14.1311C15.779 14.2837 15.8858 14.3981 16.0251 14.4744C16.1643 14.5507 16.3083 14.5888 16.4568 14.5888H22C21.7772 17.2396 20.714 19.4708 18.8106 21.2825C16.9071 23.0942 14.637 24 12 24Z" fill="#787A8A"/>
</svg>
