<svg width="24" height="24" viewBox="0 0 24 24" fill="none" xmlns="http://www.w3.org/2000/svg">
<path d="M8 1.71633V0H15V1.71633H8ZM10.625 14.503H12.375V7.92372H10.625V14.503ZM11.5 24C10.0611 24 8.70486 23.7282 7.43125 23.1847C6.15764 22.6412 5.04444 21.9023 4.09167 20.9678C3.13889 20.0334 2.38542 18.9416 1.83125 17.6925C1.27708 16.4434 1 15.1132 1 13.702C1 12.2908 1.27708 10.9607 1.83125 9.71156C2.38542 8.46245 3.13889 7.37068 4.09167 6.43623C5.04444 5.50179 6.15764 4.76281 7.43125 4.21931C8.70486 3.6758 10.0611 3.40405 11.5 3.40405C12.8028 3.40405 14.0229 3.61383 15.1604 4.03337C16.2979 4.45292 17.3139 5.0441 18.2083 5.80691L19.6958 4.34803L20.95 5.57807L19.4625 7.03695C20.1625 7.79976 20.7604 8.72467 21.2562 9.81168C21.7521 10.8987 22 12.1955 22 13.702C22 15.1132 21.7229 16.4434 21.1687 17.6925C20.6146 18.9416 19.8611 20.0334 18.9083 20.9678C17.9556 21.9023 16.8424 22.6412 15.5687 23.1847C14.2951 23.7282 12.9389 24 11.5 24Z" fill="#787A8A"/>
</svg>
