<svg width="24" height="24" viewBox="0 0 24 24" fill="none" xmlns="http://www.w3.org/2000/svg">
<circle cx="12" cy="12" r="12" fill="#787A8A"/>
<path d="M16.9671 10.1816C16.9423 10.1274 16.9049 10.0819 16.8588 10.0502C16.8128 10.0184 16.7599 10.0016 16.706 10.0016H12.3678L13.4641 4.40652C13.479 4.33143 13.4706 4.25281 13.4401 4.18399C13.4097 4.11517 13.3592 4.06041 13.2972 4.02901C13.2352 3.9976 13.1655 3.99148 13.1 4.0117C13.0345 4.03191 12.9771 4.07721 12.9377 4.1399L7.05621 13.4718C7.02424 13.5216 7.00509 13.5805 7.00088 13.642C6.99667 13.7034 7.00758 13.7649 7.03238 13.8198C7.05718 13.8746 7.09491 13.9206 7.14137 13.9526C7.18784 13.9846 7.24122 14.0013 7.29559 14.001H11.6338L10.5375 19.5935C10.5225 19.6686 10.531 19.7472 10.5614 19.816C10.5919 19.8848 10.6424 19.9396 10.7044 19.971C10.7664 20.0024 10.8361 20.0085 10.9016 19.9883C10.9671 19.9681 11.0245 19.9228 11.0639 19.8601L16.9454 10.5282C16.9768 10.4783 16.9954 10.4195 16.9993 10.3584C17.0031 10.2972 16.992 10.2361 16.9671 10.1816Z" fill="#090D2B"/>
</svg>
