<svg width="44" height="44" viewBox="0 0 44 44" fill="none" xmlns="http://www.w3.org/2000/svg">
<g clip-path="url(#clip0_109_25712)">
<mask id="mask0_109_25712" style="mask-type:luminance" maskUnits="userSpaceOnUse" x="0" y="0" width="44" height="44">
<path d="M44 0H0V44H44V0Z" fill="white"/>
</mask>
<g mask="url(#mask0_109_25712)">
<g filter="url(#filter0_ddd_109_25712)">
<path d="M0 0H44V44H0V0Z" fill="url(#paint0_linear_109_25712)"/>
<path d="M0 0H44V44H0V0Z" fill="white"/>
</g>
<g filter="url(#filter1_dddd_109_25712)">
<path d="M27.2754 5.86902H16.6222C15.4782 5.86902 14.5508 6.79644 14.5508 7.94046V35.905C14.5508 37.049 15.4782 37.9765 16.6222 37.9765H27.2754C28.4194 37.9765 29.3468 37.049 29.3468 35.905V7.94046C29.3468 6.79644 28.4194 5.86902 27.2754 5.86902Z" fill="#F2FAFF"/>
<path d="M27.2754 5.86902H16.6222C15.4782 5.86902 14.5508 6.79644 14.5508 7.94046V35.905C14.5508 37.049 15.4782 37.9765 16.6222 37.9765H27.2754C28.4194 37.9765 29.3468 37.049 29.3468 35.905V7.94046C29.3468 6.79644 28.4194 5.86902 27.2754 5.86902Z" fill="url(#paint1_linear_109_25712)" fill-opacity="0.1"/>
<path d="M27.2754 5.86902H16.6222C15.4782 5.86902 14.5508 6.79644 14.5508 7.94046V35.905C14.5508 37.049 15.4782 37.9765 16.6222 37.9765H27.2754C28.4194 37.9765 29.3468 37.049 29.3468 35.905V7.94046C29.3468 6.79644 28.4194 5.86902 27.2754 5.86902Z" fill="url(#paint2_linear_109_25712)" fill-opacity="0.1"/>
<path d="M27.2754 5.86902H16.6222C15.4782 5.86902 14.5508 6.79644 14.5508 7.94046V35.905C14.5508 37.049 15.4782 37.9765 16.6222 37.9765H27.2754C28.4194 37.9765 29.3468 37.049 29.3468 35.905V7.94046C29.3468 6.79644 28.4194 5.86902 27.2754 5.86902Z" fill="url(#paint3_linear_109_25712)" fill-opacity="0.39"/>
<path d="M27.2754 6.02698H16.6222C15.5654 6.02698 14.7087 6.88367 14.7087 7.94046V35.905C14.7087 36.9618 15.5654 37.8185 16.6222 37.8185H27.2754C28.3322 37.8185 29.1889 36.9618 29.1889 35.905V7.94046C29.1889 6.88367 28.3322 6.02698 27.2754 6.02698Z" stroke="black" stroke-opacity="0.05" stroke-width="0.315921"/>
</g>
<g filter="url(#filter2_ddd_109_25712)">
<path d="M26.2266 13.5979L16.7817 23.0927H20.2849L17.5922 30.2965L27.2628 20.8012H23.759L26.2266 13.5979Z" fill="#FF8A00"/>
<path d="M26.3761 13.6492L26.5984 13L26.1145 13.4865L16.6697 22.9813L16.4016 23.2508H16.7817H20.0571L17.4441 30.2412L17.1948 30.9081L17.7029 30.4093L27.3735 20.914L27.6493 20.6431H27.2628H23.9802L26.3761 13.6492Z" stroke="white" stroke-opacity="0.13" stroke-width="0.263268" stroke-miterlimit="4.62751"/>
</g>
</g>
</g>
<defs>
<filter id="filter0_ddd_109_25712" x="-3.07153" y="-5.31119" width="50.1431" height="54.0465" filterUnits="userSpaceOnUse" color-interpolation-filters="sRGB">
<feFlood flood-opacity="0" result="BackgroundImageFix"/>
<feColorMatrix in="SourceAlpha" type="matrix" values="0 0 0 0 0 0 0 0 0 0 0 0 0 0 0 0 0 0 127 0" result="hardAlpha"/>
<feOffset dy="1.66374"/>
<feGaussianBlur stdDeviation="1.53576"/>
<feComposite in2="hardAlpha" operator="out"/>
<feColorMatrix type="matrix" values="0 0 0 0 1 0 0 0 0 1 0 0 0 0 1 0 0 0 0.54 0"/>
<feBlend mode="normal" in2="BackgroundImageFix" result="effect1_dropShadow_109_25712"/>
<feColorMatrix in="SourceAlpha" type="matrix" values="0 0 0 0 0 0 0 0 0 0 0 0 0 0 0 0 0 0 127 0" result="hardAlpha"/>
<feOffset dy="-2.23966"/>
<feGaussianBlur stdDeviation="1.53576"/>
<feComposite in2="hardAlpha" operator="out"/>
<feColorMatrix type="matrix" values="0 0 0 0 0.577292 0 0 0 0 0.782759 0 0 0 0 0.85 0 0 0 0.12 0"/>
<feBlend mode="normal" in2="effect1_dropShadow_109_25712" result="effect2_dropShadow_109_25712"/>
<feColorMatrix in="SourceAlpha" type="matrix" values="0 0 0 0 0 0 0 0 0 0 0 0 0 0 0 0 0 0 127 0" result="hardAlpha"/>
<feOffset dy="-0.831234"/>
<feGaussianBlur stdDeviation="0.664987"/>
<feComposite in2="hardAlpha" operator="out"/>
<feColorMatrix type="matrix" values="0 0 0 0 0.858333 0 0 0 0 0.970486 0 0 0 0 1 0 0 0 1 0"/>
<feBlend mode="normal" in2="effect2_dropShadow_109_25712" result="effect3_dropShadow_109_25712"/>
<feBlend mode="normal" in="SourceGraphic" in2="effect3_dropShadow_109_25712" result="shape"/>
</filter>
<filter id="filter1_dddd_109_25712" x="12.5432" y="3.84118" width="18.8112" height="37.7505" filterUnits="userSpaceOnUse" color-interpolation-filters="sRGB">
<feFlood flood-opacity="0" result="BackgroundImageFix"/>
<feColorMatrix in="SourceAlpha" type="matrix" values="0 0 0 0 0 0 0 0 0 0 0 0 0 0 0 0 0 0 127 0" result="hardAlpha"/>
<feOffset dy="0.14796"/>
<feGaussianBlur stdDeviation="0.429789"/>
<feComposite in2="hardAlpha" operator="out"/>
<feColorMatrix type="matrix" values="0 0 0 0 0 0 0 0 0 0 0 0 0 0 0 0 0 0 0.25 0"/>
<feBlend mode="normal" in2="BackgroundImageFix" result="effect1_dropShadow_109_25712"/>
<feColorMatrix in="SourceAlpha" type="matrix" values="0 0 0 0 0 0 0 0 0 0 0 0 0 0 0 0 0 0 127 0" result="hardAlpha"/>
<feOffset dy="1.60762"/>
<feGaussianBlur stdDeviation="1.00378"/>
<feComposite in2="hardAlpha" operator="out"/>
<feColorMatrix type="matrix" values="0 0 0 0 0 0 0 0 0 0 0 0 0 0 0 0 0 0 0.15 0"/>
<feBlend mode="normal" in2="effect1_dropShadow_109_25712" result="effect2_dropShadow_109_25712"/>
<feColorMatrix in="SourceAlpha" type="matrix" values="0 0 0 0 0 0 0 0 0 0 0 0 0 0 0 0 0 0 127 0" result="hardAlpha"/>
<feOffset dy="-1.57721"/>
<feGaussianBlur stdDeviation="0.225315"/>
<feComposite in2="hardAlpha" operator="out"/>
<feColorMatrix type="matrix" values="0 0 0 0 0 0 0 0 0 0 0 0 0 0 0 0 0 0 0.44 0"/>
<feBlend mode="normal" in2="effect2_dropShadow_109_25712" result="effect3_dropShadow_109_25712"/>
<feColorMatrix in="SourceAlpha" type="matrix" values="0 0 0 0 0 0 0 0 0 0 0 0 0 0 0 0 0 0 127 0" result="hardAlpha"/>
<feOffset dy="0.225315"/>
<feGaussianBlur stdDeviation="0.168987"/>
<feComposite in2="hardAlpha" operator="out"/>
<feColorMatrix type="matrix" values="0 0 0 0 1 0 0 0 0 1 0 0 0 0 1 0 0 0 0.85 0"/>
<feBlend mode="normal" in2="effect3_dropShadow_109_25712" result="effect4_dropShadow_109_25712"/>
<feBlend mode="normal" in="SourceGraphic" in2="effect4_dropShadow_109_25712" result="shape"/>
</filter>
<filter id="filter2_ddd_109_25712" x="11.3461" y="7.76317" width="21.3639" height="28.3932" filterUnits="userSpaceOnUse" color-interpolation-filters="sRGB">
<feFlood flood-opacity="0" result="BackgroundImageFix"/>
<feColorMatrix in="SourceAlpha" type="matrix" values="0 0 0 0 0 0 0 0 0 0 0 0 0 0 0 0 0 0 127 0" result="hardAlpha"/>
<feOffset/>
<feGaussianBlur stdDeviation="1.31634"/>
<feComposite in2="hardAlpha" operator="out"/>
<feColorMatrix type="matrix" values="0 0 0 0 0 0 0 0 0 0 0 0 0 0 0 0 0 0 0.05 0"/>
<feBlend mode="normal" in2="BackgroundImageFix" result="effect1_dropShadow_109_25712"/>
<feColorMatrix in="SourceAlpha" type="matrix" values="0 0 0 0 0 0 0 0 0 0 0 0 0 0 0 0 0 0 127 0" result="hardAlpha"/>
<feOffset/>
<feGaussianBlur stdDeviation="2.36941"/>
<feComposite in2="hardAlpha" operator="out"/>
<feColorMatrix type="matrix" values="0 0 0 0 1 0 0 0 0 0.508167 0 0 0 0 0.0541667 0 0 0 0.25 0"/>
<feBlend mode="normal" in2="effect1_dropShadow_109_25712" result="effect2_dropShadow_109_25712"/>
<feColorMatrix in="SourceAlpha" type="matrix" values="0 0 0 0 0 0 0 0 0 0 0 0 0 0 0 0 0 0 127 0" result="hardAlpha"/>
<feOffset dy="0.526535"/>
<feGaussianBlur stdDeviation="0.263268"/>
<feComposite in2="hardAlpha" operator="out"/>
<feColorMatrix type="matrix" values="0 0 0 0 0 0 0 0 0 0 0 0 0 0 0 0 0 0 0.2 0"/>
<feBlend mode="normal" in2="effect2_dropShadow_109_25712" result="effect3_dropShadow_109_25712"/>
<feBlend mode="normal" in="SourceGraphic" in2="effect3_dropShadow_109_25712" result="shape"/>
</filter>
<linearGradient id="paint0_linear_109_25712" x1="41.8303" y1="44.5432" x2="7.60245" y2="-2.75841" gradientUnits="userSpaceOnUse">
<stop stop-color="#D2DAE2"/>
<stop offset="0.443664" stop-color="#EAF9FF"/>
<stop offset="1" stop-color="white"/>
</linearGradient>
<linearGradient id="paint1_linear_109_25712" x1="21.9488" y1="10.3488" x2="21.9488" y2="37.9765" gradientUnits="userSpaceOnUse">
<stop stop-color="#25A4FF"/>
<stop offset="1" stop-color="#057DD5"/>
</linearGradient>
<linearGradient id="paint2_linear_109_25712" x1="22.1422" y1="5.9079" x2="19.7863" y2="37.7777" gradientUnits="userSpaceOnUse">
<stop/>
<stop offset="1" stop-opacity="0"/>
</linearGradient>
<linearGradient id="paint3_linear_109_25712" x1="21.9488" y1="3.61587" x2="21.9488" y2="16.0082" gradientUnits="userSpaceOnUse">
<stop stop-color="white"/>
<stop offset="1" stop-color="white" stop-opacity="0"/>
</linearGradient>
<clipPath id="clip0_109_25712">
<rect width="44" height="44" rx="10.6562" fill="white"/>
</clipPath>
</defs>
</svg>
